# Blender v2.72 (sub 0) OBJ File: ''
# www.blender.org
o mesh01.001
v -18.140518 25.051125 14.416788
v 18.140520 25.051125 14.416788
v 18.140520 25.051128 -14.416786
v -18.140518 25.051128 -14.416786
v -18.140518 0.000000 -14.416790
v 18.140520 0.000000 -14.416790
v 18.140520 -0.000004 14.416784
v -18.140518 -0.000004 14.416784
v -18.140518 -0.000004 14.416784
v -18.140518 25.051125 14.416788
v -18.140518 25.051128 -14.416786
v -18.140518 0.000000 -14.416790
v 18.140520 0.000000 -14.416790
v 18.140520 25.051128 -14.416786
v 18.140520 25.051125 14.416788
v 18.140520 -0.000004 14.416784
v -18.140518 25.051128 -14.416786
v 18.140520 25.051128 -14.416786
v 18.140520 0.000000 -14.416790
v -18.140518 0.000000 -14.416790
v -18.140518 -0.000004 14.416784
v 18.140520 -0.000004 14.416784
v 18.140520 25.051125 14.416788
v -18.140518 25.051125 14.416788
vt 0.000000 0.874560
vt 0.000000 0.750000
vt 0.124560 0.750000
vt 0.124560 0.874560
vt 0.125000 0.750000
vt 0.125000 0.874560
vt 0.249560 0.874560
vt 0.249560 0.750000
vt 0.374560 0.874560
vt 0.250000 0.874560
vt 0.250000 0.750000
vt 0.374560 0.750000
vn 0.000000 1.000000 0.000000
vn 0.000000 -1.000000 -0.000000
vn -1.000000 0.000000 0.000000
vn 1.000000 0.000000 0.000000
vn 0.000000 0.000000 -1.000000
vn 0.000000 -0.000000 1.000000
s off
f 1/1/1 2/2/1 3/3/1
f 1/1/1 3/3/1 4/4/1
f 5/4/2 6/3/2 7/2/2
f 5/4/2 7/2/2 8/1/2
f 9/5/3 10/6/3 11/7/3
f 9/5/3 11/7/3 12/8/3
f 13/8/4 14/7/4 15/6/4
f 13/8/4 15/6/4 16/5/4
f 17/9/5 18/10/5 19/11/5
f 17/9/5 19/11/5 20/12/5
f 21/12/6 22/11/6 23/10/6
f 21/12/6 23/10/6 24/9/6
