# Blender v2.72 (sub 0) OBJ File: ''
# www.blender.org
o Cylinder_Cylinder.001
v 0.000000 0.050000 -0.500000
v 0.097545 0.050000 -0.490393
v 0.097545 -0.050000 -0.490393
v 0.191341 0.050000 -0.461940
v 0.191341 -0.050000 -0.461940
v 0.277785 0.050000 -0.415735
v 0.277785 -0.050000 -0.415735
v 0.353553 0.050000 -0.353554
v 0.353553 -0.050000 -0.353554
v 0.415735 0.050000 -0.277785
v 0.415735 -0.050000 -0.277785
v 0.461940 0.050000 -0.191342
v 0.461940 -0.050000 -0.191342
v 0.490393 0.050000 -0.097545
v 0.490393 -0.050000 -0.097545
v 0.500000 0.050000 0.000000
v 0.500000 -0.050000 -0.000000
v 0.490393 0.050000 0.097545
v 0.490393 -0.050000 0.097545
v 0.461940 0.050000 0.191341
v 0.461940 -0.050000 0.191341
v 0.415735 0.050000 0.277785
v 0.415735 -0.050000 0.277785
v 0.353554 0.050000 0.353553
v 0.353554 -0.050000 0.353553
v 0.277785 0.050000 0.415735
v 0.277785 -0.050000 0.415735
v 0.191342 0.050000 0.461940
v 0.191342 -0.050000 0.461940
v 0.097545 0.050000 0.490393
v 0.097545 -0.050000 0.490393
v 0.000000 0.050000 0.500000
v 0.000000 -0.050000 0.500000
v -0.097545 0.050000 0.490393
v -0.097545 -0.050000 0.490393
v -0.191342 0.050000 0.461940
v -0.191342 -0.050000 0.461940
v -0.277785 0.050000 0.415735
v -0.277785 -0.050000 0.415735
v -0.353554 0.050000 0.353553
v -0.353554 -0.050000 0.353553
v -0.415735 0.050000 0.277785
v -0.415735 -0.050000 0.277785
v -0.461940 0.050000 0.191341
v -0.461940 -0.050000 0.191341
v -0.490393 0.050000 0.097545
v -0.490393 -0.050000 0.097545
v -0.500000 0.050000 0.000000
v -0.500000 -0.050000 -0.000000
v -0.490393 0.050000 -0.097545
v -0.490393 -0.050000 -0.097545
v -0.461940 0.050000 -0.191342
v -0.461940 -0.050000 -0.191342
v -0.415735 0.050000 -0.277785
v -0.415735 -0.050000 -0.277785
v -0.353553 0.050000 -0.353554
v -0.353553 -0.050000 -0.353554
v -0.277785 0.050000 -0.415735
v -0.277785 -0.050000 -0.415735
v -0.191341 0.050000 -0.461940
v -0.191341 -0.050000 -0.461940
v -0.097545 0.050000 -0.490393
v 0.000000 -0.050000 -0.500000
v -0.097545 -0.050000 -0.490393
v -0.000005 -0.050000 -0.000008
v -0.000007 -0.050000 -0.000007
v 0.000005 0.050000 -0.000008
v 0.000007 0.050000 -0.000007
v 0.000010 0.050000 0.000000
v 0.000009 0.050000 0.000002
v 0.000004 -0.050000 -0.000009
v 0.000002 -0.050000 -0.000010
v 0.000005 0.050000 0.000008
v 0.000004 0.050000 0.000009
v 0.000009 -0.050000 -0.000002
v 0.000009 -0.050000 -0.000004
v -0.000004 0.050000 0.000009
v -0.000005 0.050000 0.000008
v 0.000007 -0.050000 0.000007
v 0.000008 -0.050000 0.000005
v -0.000009 0.050000 0.000002
v -0.000010 0.050000 0.000000
v -0.000007 0.050000 -0.000007
v -0.000005 0.050000 -0.000008
v -0.000002 -0.050000 0.000009
v 0.000000 -0.050000 0.000010
v -0.000009 -0.050000 0.000004
v -0.000008 -0.050000 0.000005
v -0.000008 -0.050000 -0.000005
v -0.000009 -0.050000 -0.000004
v 0.000002 0.050000 -0.000010
v 0.000004 0.050000 -0.000009
v 0.000000 -0.050000 -0.000010
v -0.000002 -0.050000 -0.000010
v 0.000009 0.050000 -0.000004
v 0.000009 0.050000 -0.000002
v 0.000008 0.050000 0.000005
v 0.000007 0.050000 0.000007
v 0.000008 -0.050000 -0.000005
v 0.000007 -0.050000 -0.000007
v 0.000000 0.050000 0.000010
v -0.000002 0.050000 0.000009
v 0.000009 -0.050000 0.000004
v 0.000009 -0.050000 0.000002
v -0.000008 0.050000 0.000005
v -0.000009 0.050000 0.000004
v -0.000009 0.050000 -0.000004
v -0.000008 0.050000 -0.000005
v 0.000002 -0.050000 0.000009
v 0.000004 -0.050000 0.000009
v -0.000002 0.050000 -0.000010
v 0.000000 0.050000 -0.000010
v -0.000007 -0.050000 0.000007
v -0.000005 -0.050000 0.000008
v -0.000009 -0.050000 -0.000002
v -0.000010 -0.050000 -0.000000
v -0.000004 -0.050000 -0.000009
v 0.000008 0.050000 -0.000005
v 0.000009 0.050000 0.000004
v 0.000005 -0.050000 -0.000008
v 0.000002 0.050000 0.000009
v 0.000010 -0.050000 -0.000000
v -0.000007 0.050000 0.000007
v 0.000005 -0.050000 0.000008
v -0.000009 0.050000 -0.000002
v -0.000004 0.050000 -0.000009
v -0.000004 -0.050000 0.000009
v -0.000009 -0.050000 0.000002
v 0.000007 0.050000 0.000007
vt 0.124156 0.875844
vt 0.124156 0.999156
vt 0.000844 0.999156
vt 0.000844 0.875844
vt 0.354214 0.019407
vt 0.450774 0.000200
vt 0.499998 0.499972
vt 0.942917 0.736744
vt 0.888217 0.818608
vt 0.942916 0.263255
vt 0.980592 0.354212
vt 0.818603 0.111779
vt 0.888220 0.181395
vt 0.549226 0.000200
vt 0.645786 0.019407
vt 0.999800 0.549225
vt 0.980593 0.645786
vt 0.111781 0.181395
vt 0.181397 0.111780
vt 0.736745 0.942917
vt 0.645787 0.980593
vt 0.019406 0.645785
vt 0.000200 0.549224
vt 0.354212 0.980593
vt 0.263254 0.942917
vt 0.181396 0.888220
vt 0.000200 0.450774
vt 0.263256 0.057083
vt 0.818601 0.888223
vt 0.736744 0.057083
vt 0.999800 0.450773
vt 0.019408 0.354213
vt 0.111779 0.818603
vt 0.450774 0.999800
vt 0.549224 0.999801
vt 0.057083 0.736744
vt 0.057083 0.263256
vn 0.098000 0.000000 -0.995200
vn 0.290300 0.000000 -0.956900
vn 0.471400 0.000000 -0.881900
vn 0.634400 0.000000 -0.773000
vn 0.773000 0.000000 -0.634400
vn 0.881900 -0.000000 -0.471400
vn 0.956900 -0.000000 -0.290300
vn 0.995200 0.000000 -0.098000
vn 0.995200 -0.000000 0.098000
vn 0.956900 -0.000000 0.290300
vn 0.881900 0.000000 0.471400
vn 0.773000 0.000000 0.634400
vn 0.634400 0.000000 0.773000
vn 0.471400 0.000000 0.881900
vn 0.290300 0.000000 0.956900
vn 0.098000 0.000000 0.995200
vn -0.098000 0.000000 0.995200
vn -0.290300 0.000000 0.956900
vn -0.471400 0.000000 0.881900
vn -0.634400 0.000000 0.773000
vn -0.773000 0.000000 0.634400
vn -0.881900 -0.000000 0.471400
vn -0.956900 0.000000 0.290300
vn -0.995200 -0.000000 0.098000
vn -0.995200 0.000000 -0.098000
vn -0.956900 0.000000 -0.290300
vn -0.881900 0.000000 -0.471400
vn -0.773000 0.000000 -0.634400
vn -0.634400 0.000000 -0.773000
vn -0.471400 0.000000 -0.881900
vn -0.098000 0.000000 -0.995200
vn -0.290300 0.000000 -0.956900
vn 0.000000 -1.000000 -0.000000
vn 0.000000 1.000000 0.000000
s off
f 1/1/1 2/2/1 3/3/1
f 2/1/2 4/2/2 5/3/2
f 4/1/3 6/2/3 7/3/3
f 6/1/4 8/2/4 9/3/4
f 8/1/5 10/2/5 11/3/5
f 10/1/6 12/2/6 13/3/6
f 12/1/7 14/2/7 15/3/7
f 14/1/8 16/2/8 17/3/8
f 16/1/9 18/2/9 19/3/9
f 18/1/10 20/2/10 21/3/10
f 20/1/11 22/2/11 23/3/11
f 22/1/12 24/2/12 25/3/12
f 24/1/13 26/2/13 27/3/13
f 26/1/14 28/2/14 29/3/14
f 28/1/15 30/2/15 31/3/15
f 30/1/16 32/2/16 33/3/16
f 32/1/17 34/2/17 35/3/17
f 34/1/18 36/2/18 37/3/18
f 36/1/19 38/2/19 39/3/19
f 38/1/20 40/2/20 41/3/20
f 40/1/21 42/2/21 43/3/21
f 42/1/22 44/2/22 45/3/22
f 44/1/23 46/2/23 47/3/23
f 46/1/24 48/2/24 49/3/24
f 48/1/25 50/2/25 51/3/25
f 50/1/26 52/2/26 53/3/26
f 52/1/27 54/2/27 55/3/27
f 54/1/28 56/2/28 57/3/28
f 56/1/29 58/2/29 59/3/29
f 58/1/30 60/2/30 61/3/30
f 62/1/31 1/2/31 63/3/31
f 60/1/32 62/2/32 64/3/32
f 63/4/1 1/1/1 3/3/1
f 3/4/2 2/1/2 5/3/2
f 5/4/3 4/1/3 7/3/3
f 7/4/4 6/1/4 9/3/4
f 9/4/5 8/1/5 11/3/5
f 11/4/6 10/1/6 13/3/6
f 13/4/7 12/1/7 15/3/7
f 15/4/8 14/1/8 17/3/8
f 17/4/9 16/1/9 19/3/9
f 19/4/10 18/1/10 21/3/10
f 21/4/11 20/1/11 23/3/11
f 23/4/12 22/1/12 25/3/12
f 25/4/13 24/1/13 27/3/13
f 27/4/14 26/1/14 29/3/14
f 29/4/15 28/1/15 31/3/15
f 31/4/16 30/1/16 33/3/16
f 33/4/17 32/1/17 35/3/17
f 35/4/18 34/1/18 37/3/18
f 37/4/19 36/1/19 39/3/19
f 39/4/20 38/1/20 41/3/20
f 41/4/21 40/1/21 43/3/21
f 43/4/22 42/1/22 45/3/22
f 45/4/23 44/1/23 47/3/23
f 47/4/24 46/1/24 49/3/24
f 49/4/25 48/1/25 51/3/25
f 51/4/26 50/1/26 53/3/26
f 53/4/27 52/1/27 55/3/27
f 55/4/28 54/1/28 57/3/28
f 57/4/29 56/1/29 59/3/29
f 59/4/30 58/1/30 61/3/30
f 64/4/31 62/1/31 63/3/31
f 61/4/32 60/1/32 64/3/32
f 57/5/33 59/6/33 65/7/33 66/7/33
f 8/8/34 6/9/34 67/7/34 68/7/34
f 18/10/34 16/11/34 69/7/34 70/7/34
f 3/12/33 5/13/33 71/7/33 72/7/33
f 28/14/34 26/15/34 73/7/34 74/7/34
f 13/16/33 15/17/33 75/7/33 76/7/33
f 38/18/34 36/19/34 77/7/34 78/7/34
f 23/20/33 25/21/33 79/7/33 80/7/33
f 48/22/34 46/23/34 81/7/34 82/7/34
f 58/24/34 56/25/34 83/7/34 84/7/34
f 33/25/33 35/26/33 85/7/33 86/7/33
f 43/23/33 45/27/33 87/7/33 88/7/33
f 53/19/33 55/28/33 89/7/33 90/7/33
f 4/29/34 2/20/34 91/7/34 92/7/34
f 64/15/33 63/30/33 93/7/33 94/7/33
f 14/31/34 12/16/34 95/7/34 96/7/34
f 24/30/34 22/12/34 97/7/34 98/7/34
f 9/11/33 11/31/33 99/7/33 100/7/33
f 34/28/34 32/5/34 101/7/34 102/7/34
f 19/9/33 21/29/33 103/7/33 104/7/33
f 44/27/34 42/32/34 105/7/34 106/7/34
f 54/26/34 52/33/34 107/7/34 108/7/34
f 29/34/33 31/24/33 109/7/33 110/7/33
f 1/21/34 62/35/34 111/7/34 112/7/34
f 39/36/33 41/22/33 113/7/33 114/7/33
f 49/37/33 51/18/33 115/7/33 116/7/33
f 59/6/33 61/14/33 117/7/33 65/7/33
f 10/17/34 8/8/34 68/7/34 118/7/34
f 20/13/34 18/10/34 70/7/34 119/7/34
f 5/13/33 7/10/33 120/7/33 71/7/33
f 30/6/34 28/14/34 74/7/34 121/7/34
f 15/17/33 17/8/33 122/7/33 75/7/33
f 40/37/34 38/18/34 78/7/34 123/7/34
f 63/30/33 3/12/33 72/7/33 93/7/33
f 25/21/33 27/35/33 124/7/33 79/7/33
f 50/36/34 48/22/34 82/7/34 125/7/34
f 60/34/34 58/24/34 84/7/34 126/7/34
f 35/26/33 37/33/33 127/7/33 85/7/33
f 45/27/33 47/32/33 128/7/33 87/7/33
f 55/28/33 57/5/33 66/7/33 89/7/33
f 6/9/34 4/29/34 92/7/34 67/7/34
f 16/11/34 14/31/34 96/7/34 69/7/34
f 2/20/34 1/21/34 112/7/34 91/7/34
f 26/15/34 24/30/34 129/7/34 73/7/34
f 36/19/34 34/28/34 102/7/34 77/7/34
f 11/31/33 13/16/33 76/7/33 99/7/33
f 21/29/33 23/20/33 80/7/33 103/7/33
f 46/23/34 44/27/34 106/7/34 81/7/34
f 56/25/34 54/26/34 108/7/34 83/7/34
f 31/24/33 33/25/33 86/7/33 109/7/33
f 41/22/33 43/23/33 88/7/33 113/7/33
f 51/18/33 53/19/33 90/7/33 115/7/33
f 61/14/33 64/15/33 94/7/33 117/7/33
f 12/16/34 10/17/34 118/7/34 95/7/34
f 22/12/34 20/13/34 119/7/34 97/7/34
f 7/10/33 9/11/33 100/7/33 120/7/33
f 32/5/34 30/6/34 121/7/34 101/7/34
f 17/8/33 19/9/33 104/7/33 122/7/33
f 42/32/34 40/37/34 123/7/34 105/7/34
f 27/35/33 29/34/33 110/7/33 124/7/33
f 52/33/34 50/36/34 125/7/34 107/7/34
f 62/35/34 60/34/34 126/7/34 111/7/34
f 37/33/33 39/36/33 114/7/33 127/7/33
f 47/32/33 49/37/33 116/7/33 128/7/33
